<?xml version="1.0" standalone="no"?>
<!DOCTYPE svg PUBLIC "-//W3C//DTD SVG 20010904//EN"
 "http://www.w3.org/TR/2001/REC-SVG-20010904/DTD/svg10.dtd">
<svg version="1.0" xmlns="http://www.w3.org/2000/svg"
 width="256.000000pt" height="256.000000pt" viewBox="0 0 256.000000 256.000000"
 preserveAspectRatio="xMidYMid meet">

<g transform="translate(0.000000,256.000000) scale(0.100000,-0.100000)"
fill="#000000" stroke="none">
<path d="M1146 2550 c-573 -72 -1010 -476 -1123 -1038 -24 -120 -24 -356 1
-472 56 -267 165 -472 355 -661 435 -436 1088 -502 1608 -163 115 74 283 242
357 357 251 386 283 849 85 1262 -168 353 -507 615 -897 695 -115 23 -289 32
-386 20z m339 -286 c44 -9 116 -30 160 -47 76 -30 244 -132 260 -157 5 -8 -30
-50 -97 -117 l-104 -104 -71 65 -71 66 -283 0 -283 0 -68 -67 -68 -68 -107
107 c-107 107 -107 107 -88 128 26 29 147 103 218 135 179 79 388 99 602 59z
m-785 -379 c100 -100 103 -105 85 -120 -11 -8 -24 -15 -29 -15 -5 0 -55 46
-112 102 -98 96 -103 103 -87 120 9 10 21 18 27 18 6 0 58 -47 116 -105z
m1302 88 c18 -16 15 -21 -89 -125 l-107 -108 -23 22 -24 22 103 103 c56 57
107 103 112 103 5 0 18 -8 28 -17z m-1398 -182 l100 -99 -62 -66 -62 -67 0
-291 0 -290 62 -70 62 -70 -99 -91 c-54 -51 -103 -92 -109 -92 -16 0 -83 94
-120 170 -131 266 -140 565 -24 843 34 83 122 222 139 222 7 0 57 -45 113 -99z
m1516 42 c60 -83 118 -211 147 -322 21 -80 25 -119 25 -236 1 -161 -23 -274
-86 -409 -42 -92 -123 -216 -139 -216 -7 1 -57 43 -112 94 l-99 94 62 66 62
67 0 295 0 296 -60 60 c-33 34 -60 64 -60 68 0 11 200 200 210 200 5 0 27 -26
50 -57z m-1240 -172 c-179 -172 -185 -177 -188 -148 -3 27 12 44 150 178 137
132 157 148 188 148 34 1 31 -3 -150 -178z m837 27 c107 -107 153 -160 153
-175 0 -13 -3 -23 -7 -23 -4 0 -59 51 -122 113 -64 62 -147 141 -184 175 l-68
62 38 0 c35 0 48 -10 190 -152z m-233 -174 c4 -16 19 -30 41 -40 l35 -14 0
-188 0 -188 -31 -11 c-19 -8 -34 -23 -42 -42 l-11 -31 -197 0 -196 0 -11 25
c-7 14 -25 34 -42 43 l-30 17 0 187 0 187 27 13 c15 7 34 26 41 41 l13 27 198
0 199 0 6 -26z m-566 -686 c72 -70 132 -129 132 -131 0 -2 -15 -1 -32 1 -26 4
-64 35 -173 140 -77 74 -143 141 -148 148 -4 7 -4 19 -1 28 7 19 24 6 222
-186z m944 162 c-4 -9 -70 -78 -148 -152 -104 -100 -149 -137 -174 -141 -18
-4 -35 -6 -36 -4 -2 2 76 78 173 170 112 105 180 163 184 155 4 -6 4 -19 1
-28z m-1172 -345 l-105 -105 -20 20 -20 20 105 105 105 105 20 -20 20 -20
-105 -105z m1302 -87 l-22 -23 -105 105 -105 104 22 23 22 24 105 -106 106
-105 -23 -22z m-1064 62 l76 -70 275 0 276 0 72 72 73 73 105 -105 c58 -58
105 -107 105 -110 0 -12 -131 -92 -210 -129 -142 -65 -240 -86 -415 -86 -183
0 -306 26 -450 97 -76 37 -185 110 -185 123 0 9 190 205 198 205 2 0 38 -31
80 -70z"/>
<path d="M1097 1434 c-11 -11 -8 -102 3 -109 6 -4 35 -3 66 1 l55 6 -3 52 -3
51 -55 3 c-31 2 -59 0 -63 -4z"/>
<path d="M1340 1386 c0 -30 5 -58 10 -61 6 -4 33 -4 60 0 l50 7 0 54 0 54 -60
0 -60 0 0 -54z"/>
<path d="M1094 1201 c-2 -2 -4 -26 -4 -53 l0 -48 66 0 65 0 -3 53 -3 52 -58 0
c-32 0 -60 -2 -63 -4z"/>
<path d="M1344 1201 c-2 -2 -4 -26 -4 -53 l0 -48 60 0 60 0 0 49 0 49 -56 4
c-31 1 -58 1 -60 -1z"/>
</g>
</svg>
